<?xml version="1.0" encoding="UTF-8"?>
<svg version="1.1" xmlns="http://www.w3.org/2000/svg" width="200" height="200">
<path d="M0 0 C66 0 132 0 200 0 C200 66 200 132 200 200 C134 200 68 200 0 200 C0 134 0 68 0 0 Z " fill="#0E111A" transform="translate(0,0)"/>
<path d="M0 0 C8.25 0 16.5 0 25 0 C25.01981934 1.98773438 25.03963867 3.97546875 25.06005859 6.0234375 C25.12800916 12.6132805 25.20479772 19.2029749 25.28752708 25.79264832 C25.33733365 29.78539602 25.38366418 33.77811925 25.421875 37.77099609 C25.45892652 41.62905871 25.50533845 45.48690848 25.55806351 49.3447876 C25.57650249 50.81183107 25.59164858 52.27891998 25.60334396 53.74603271 C25.73236186 69.43484105 25.73236186 69.43484105 33 83 C38.98267861 86.78495994 45.0333261 87.74875467 52 87 C57.48869603 85.72147585 61.79209517 84.04298721 65 79.25 C69.86548029 70.73540949 69.33850938 61.04016983 69.4140625 51.5625 C69.43279923 50.07176675 69.45237447 48.58104382 69.4727478 47.09033203 C69.52381073 43.1909599 69.56357365 39.29155348 69.60089111 35.39202881 C69.64109395 31.40319518 69.69211154 27.41450099 69.7421875 23.42578125 C69.83864038 15.61727647 69.92214072 7.80871637 70 0 C78.58 0 87.16 0 96 0 C96.0093457 2.00231689 96.01869141 4.00463379 96.02832031 6.06762695 C96.06225513 12.72138893 96.11789429 19.37484612 96.18390274 26.02836323 C96.22322665 30.05806802 96.25548829 34.08755924 96.27099609 38.11743164 C96.28626319 42.01456279 96.32088321 45.91110615 96.36830902 49.80797386 C96.38302018 51.28647914 96.39103505 52.7650684 96.39188385 54.24364662 C96.40351787 64.35806407 96.8608586 73.92955179 103.5 82.0625 C110.37080044 87.38737034 118.62878364 86.99622674 127 86 C132.14117349 84.4321244 134.88219516 81.71744343 137.4375 77.0625 C139.90182053 71.6807776 140.12816131 66.01064375 140.20532227 60.16845703 C140.21522186 59.51409164 140.22512146 58.85972626 140.23532104 58.18553162 C140.26666973 56.04299418 140.29158692 53.90043465 140.31640625 51.7578125 C140.33699885 50.26422582 140.3579959 48.77064466 140.37937927 47.27706909 C140.434362 43.36121112 140.4838754 39.44530263 140.53222656 35.52935791 C140.58261626 31.52733915 140.6382108 27.52539301 140.69335938 23.5234375 C140.80064951 15.68235162 140.90167671 7.84120345 141 0 C149.25 0 157.5 0 166 0 C166.06809495 9.04999311 166.12299874 18.09981279 166.15543652 27.15000534 C166.17101422 31.35351927 166.1921059 35.55684706 166.22631836 39.76025391 C166.25919645 43.82570444 166.27691219 47.89097725 166.28463173 51.9565506 C166.29012469 53.49850507 166.30084923 55.04045113 166.31719017 56.5823288 C166.47193221 71.80501369 164.45317344 86.0475071 153.875 97.8125 C143.29804802 107.52745369 128.87079486 110.76595331 114.9296875 110.27734375 C104.53511764 109.54373097 96.17698191 106.59000187 88 100 C86.6194364 98.37224089 85.2721282 96.71383938 84 95 C80.68194694 96.43146094 78.73143997 98.21691379 76.25 100.8125 C67.04292474 109.08530576 54.71431103 110.78833611 42.7578125 110.35546875 C29.86913514 109.13626954 18.91076985 104.99821698 9.97265625 95.4453125 C0.33925874 83.5037148 -0.44869233 68.99044119 -0.29296875 54.296875 C-0.2873592 52.72219247 -0.28309555 51.14750463 -0.28010559 49.57281494 C-0.26876355 45.46943175 -0.23939096 41.36637758 -0.20599365 37.26312256 C-0.17506044 33.05957487 -0.16155106 28.85597295 -0.14648438 24.65234375 C-0.11450854 16.43472953 -0.06183059 8.21744386 0 0 Z " fill="#EDEDEE" transform="translate(17,45)"/>
<path d="M0 0 C4.75 1.875 4.75 1.875 7 3 C7 3.99 7 4.98 7 6 C6.01 6.33 5.02 6.66 4 7 C1.8125 5.8125 1.8125 5.8125 0 4 C0 2.68 0 1.36 0 0 Z " fill="#181A22" transform="translate(119,123)"/>
</svg>
